<svg width="513" height="451" viewBox="0 0 513 451" fill="none" xmlns="http://www.w3.org/2000/svg">
<path d="M373.437 0C349.414 0.373652 325.916 7.07954 305.314 19.4405C284.713 31.8014 267.738 49.3796 256.103 70.4C244.469 49.3796 227.494 31.8014 206.892 19.4405C186.291 7.07954 162.792 0.373652 138.77 0C100.475 1.6638 64.3957 18.4161 38.4133 46.597C12.4309 74.7778 -1.34207 112.097 0.103277 150.4C0.103277 247.403 102.205 353.344 187.837 425.173C206.956 441.24 231.13 450.049 256.103 450.049C281.077 450.049 305.251 441.24 324.37 425.173C410.002 353.344 512.103 247.403 512.103 150.4C513.549 112.097 499.776 74.7778 473.793 46.597C447.811 18.4161 411.731 1.6638 373.437 0ZM296.957 392.533C285.522 402.163 271.053 407.443 256.103 407.443C241.154 407.443 226.685 402.163 215.25 392.533C105.639 300.565 42.7699 212.331 42.7699 150.4C41.3116 123.407 50.5858 96.9329 68.5697 76.7509C86.5536 56.569 111.788 44.3168 138.77 42.6667C165.752 44.3168 190.986 56.569 208.97 76.7509C226.954 96.9329 236.228 123.407 234.77 150.4C234.77 156.058 237.018 161.484 241.018 165.485C245.019 169.486 250.445 171.733 256.103 171.733C261.761 171.733 267.187 169.486 271.188 165.485C275.189 161.484 277.437 156.058 277.437 150.4C275.978 123.407 285.252 96.9329 303.236 76.7509C321.22 56.569 346.455 44.3168 373.437 42.6667C400.418 44.3168 425.653 56.569 443.637 76.7509C461.621 96.9329 470.895 123.407 469.437 150.4C469.437 212.331 406.567 300.565 296.957 392.448V392.533Z" fill="#00C83C"/>
</svg>
