<svg width="512" height="363" viewBox="0 0 512 363" fill="none" xmlns="http://www.w3.org/2000/svg">
<path d="M480 149.333H32C14.327 149.333 0 163.66 0 181.333C0 199.006 14.327 213.333 32 213.333H480C497.673 213.333 512 199.006 512 181.333C512 163.66 497.673 149.333 480 149.333Z" fill="#00C83C"/>
<path d="M32 64H480C497.673 64 512 49.673 512 32C512 14.327 497.673 0 480 0H32C14.327 0 0 14.327 0 32C0 49.673 14.327 64 32 64Z" fill="#00C83C"/>
<path d="M480 298.666H32C14.327 298.666 0 312.993 0 330.666C0 348.339 14.327 362.666 32 362.666H480C497.673 362.666 512 348.339 512 330.666C512 312.993 497.673 298.666 480 298.666Z" fill="#00C83C"/>
</svg>
