<svg width="384" height="512" viewBox="0 0 384 512" fill="none" xmlns="http://www.w3.org/2000/svg">
<path d="M352.747 66.6031L317.419 31.2324C307.534 21.2978 295.778 13.4221 282.829 8.0611C269.881 2.70015 255.998 -0.0395945 241.984 0.000432329H106.667C78.3873 0.0343066 51.2759 11.2832 31.2794 31.2798C11.2828 51.2763 0.0338743 78.3877 0 106.667V405.334C0.0338743 433.613 11.2828 460.725 31.2794 480.721C51.2759 500.718 78.3873 511.967 106.667 512.001H277.333C305.613 511.967 332.724 500.718 352.721 480.721C372.717 460.725 383.966 433.613 384 405.334V142.016C384.034 128.004 381.29 114.125 375.925 101.18C370.561 88.2355 362.683 76.4832 352.747 66.6031ZM322.581 96.7684C325.607 99.7833 328.317 103.1 330.667 106.667H277.333V53.3338C280.895 55.7086 284.217 58.4236 287.253 61.4404L322.581 96.7684ZM341.333 405.334C341.333 422.308 334.591 438.586 322.588 450.589C310.586 462.591 294.307 469.334 277.333 469.334H106.667C89.6928 469.334 73.4142 462.591 61.4118 450.589C49.4095 438.586 42.6667 422.308 42.6667 405.334V106.667C42.6667 89.6932 49.4095 73.4146 61.4118 61.4123C73.4142 49.4099 89.6928 42.6671 106.667 42.6671H234.667V106.667C234.667 117.983 239.162 128.835 247.163 136.837C255.165 144.839 266.017 149.334 277.333 149.334H341.333V405.334ZM277.333 192C282.991 192 288.418 194.248 292.418 198.249C296.419 202.25 298.667 207.676 298.667 213.334C298.667 218.992 296.419 224.418 292.418 228.419C288.418 232.42 282.991 234.667 277.333 234.667H106.667C101.009 234.667 95.5825 232.42 91.5817 228.419C87.581 224.418 85.3333 218.992 85.3333 213.334C85.3333 207.676 87.581 202.25 91.5817 198.249C95.5825 194.248 101.009 192 106.667 192H277.333ZM298.667 298.667C298.667 304.325 296.419 309.751 292.418 313.752C288.418 317.753 282.991 320 277.333 320H106.667C101.009 320 95.5825 317.753 91.5817 313.752C87.581 309.751 85.3333 304.325 85.3333 298.667C85.3333 293.009 87.581 287.583 91.5817 283.582C95.5825 279.581 101.009 277.334 106.667 277.334H277.333C282.991 277.334 288.418 279.581 292.418 283.582C296.419 287.583 298.667 293.009 298.667 298.667ZM294.571 371.478C297.887 376.04 299.262 381.73 298.394 387.303C297.526 392.876 294.487 397.878 289.941 401.216C268.327 416.618 242.726 425.455 216.213 426.667C200.723 426.592 185.703 421.335 173.547 411.734C166.549 406.934 163.883 405.334 158.613 405.334C144.35 407.541 130.893 413.373 119.531 422.273C115.024 425.485 109.445 426.821 103.972 425.997C98.4991 425.173 93.5605 422.255 90.1991 417.858C86.8378 413.461 85.3167 407.93 85.9573 402.432C86.5978 396.935 89.3498 391.901 93.632 388.395C112.43 373.802 135.003 364.876 158.699 362.667C172.91 362.894 186.648 367.806 197.781 376.641C202.856 381.205 209.39 383.814 216.213 384C233.657 382.694 250.431 376.734 264.789 366.742C269.368 363.423 275.076 362.058 280.66 362.946C286.244 363.834 291.248 366.903 294.571 371.478Z" fill="#3F3F3F"/>
</svg>
