<svg width="512" height="512" viewBox="0 0 512 512" fill="none" xmlns="http://www.w3.org/2000/svg">
<path d="M493.248 193.016L331.435 31.1814C311.408 11.2131 284.281 0 256 0C227.72 0 200.592 11.2131 180.566 31.1814L18.7523 193.016C12.788 198.942 8.05935 205.993 4.84042 213.76C1.62149 221.527 -0.0236885 229.856 0.000257696 238.264V447.693C0.000257696 464.667 6.7431 480.946 18.7454 492.948C30.7478 504.951 47.0264 511.693 64.0003 511.693H448C464.974 511.693 481.253 504.951 493.255 492.948C505.257 480.946 512 464.667 512 447.693V238.264C512.024 229.856 510.379 221.527 507.16 213.76C503.941 205.993 499.213 198.942 493.248 193.016ZM320 469.027H192V385.101C192 368.128 198.743 351.849 210.745 339.847C222.748 327.844 239.026 321.101 256 321.101C272.974 321.101 289.253 327.844 301.255 339.847C313.257 351.849 320 368.128 320 385.101V469.027ZM469.334 447.693C469.334 453.351 467.086 458.778 463.085 462.778C459.084 466.779 453.658 469.027 448 469.027H362.667V385.101C362.667 356.812 351.429 329.681 331.425 309.677C311.421 289.673 284.29 278.435 256 278.435C227.711 278.435 200.579 289.673 180.576 309.677C160.572 329.681 149.334 356.812 149.334 385.101V469.027H64.0003C58.3423 469.027 52.9161 466.779 48.9153 462.778C44.9145 458.778 42.6669 453.351 42.6669 447.693V238.264C42.6867 232.61 44.9323 227.192 48.9176 223.181L210.731 61.4107C222.757 49.4412 239.033 42.7215 256 42.7215C272.967 42.7215 289.244 49.4412 301.27 61.4107L463.083 223.245C467.053 227.24 469.297 232.632 469.334 238.264V447.693Z" fill="white"/>
</svg>
