<svg width="427" height="513" viewBox="0 0 427 513" fill="none" xmlns="http://www.w3.org/2000/svg">
<path d="M254.809 256.108L419.844 52.2257C430.958 38.487 428.846 18.3484 415.086 7.23368C401.326 -3.90232 381.209 -1.74765 370.094 11.991L213.636 205.271L57.1769 11.991C30.7023 -20.4143 -18.7697 19.607 7.42762 52.247L172.462 256.13L7.42762 459.991C-3.68705 473.73 -1.57505 493.868 12.1849 504.983C25.8383 516.055 46.0196 514.028 57.1769 500.226L213.636 306.946L370.094 500.226C381.273 514.028 401.454 516.055 415.086 504.983C428.846 493.868 430.958 473.708 419.844 459.991L254.809 256.108Z" fill="#2D3436"/>
</svg>
